<svg viewBox="597 310.1423 380 84.0154" width="5000" height="1105.465789473684" xmlns="http://www.w3.org/2000/svg" xmlns:xlink="http://www.w3.org/1999/xlink" preserveAspectRatio="none"><defs></defs><style>.background {fill:#010506;fill-opacity:1;}.companyName {fill:#EEF8F7;fill-opacity:1;}.icon1 {fill:#E35F21;fill-opacity:1;}.icon2 {fill:#EEF8F7;fill-opacity:1;}.icon3 {fill:#FAAB05;fill-opacity:1;}.icon3-str {stroke:#FAAB05;stroke-opacity:1;}.shapeStroke-str {stroke:#E35F21;stroke-opacity:1;}.text {fill:#EEF8F7;fill-opacity:1;}</style><g opacity="1" transform="rotate(0 597 310.1423)">
<svg width="84.0154" height="84.0154" x="597" y="310.1423" version="1.1" preserveAspectRatio="none" viewBox="0 0 84.0154 84.0154">
  <defs><rect x="0" y="0" width="84.0154" height="84.0154" rx="150px" ry="150px" id="id-3WKIowxM3"></rect></defs><use class="icon1 shapeStroke-str" style="stroke-width:0;" xlink:href="#id-3WKIowxM3"></use>
</svg>
</g><g opacity="1" transform="rotate(0 609.6023 322.7446)">
<svg width="58.8108" height="58.8107" x="609.6023" y="322.7446" version="1.1" preserveAspectRatio="none" viewBox="0 0 100 100">
  <g transform="matrix(1 0 0 1 0 0)" class="background"><g><path class="st0" d="M1995.8,334.3c15.1,0,27.9-9.9,32.3-23.6c-7.9-8.5-19.2-13.8-31.7-13.8c-13,0-24.6,5.7-32.5,14.8   C1968.5,324.9,1981,334.3,1995.8,334.3z"></path><path class="st1" d="M1995.8,334.3c15.1,0,27.9-9.9,32.3-23.6c-7.9-8.5-19.2-13.8-31.7-13.8c-13,0-24.6,5.7-32.5,14.8   C1968.5,324.9,1981,334.3,1995.8,334.3z"></path><path class="st2" d="M2026.9,287.1c1.8,4.1,2.7,8.6,2.7,13.4c0,18.7-15.2,33.8-33.8,33.8s-33.8-15.2-33.8-33.8   c0-6.9,2-13.3,5.6-18.6"></path><path class="st1" d="M2020.5,269.1c-1.4,0-2.6,0.3-3.8,0.8c-0.2,0.1-0.3,0.1-0.5,0.2c3,2.3,5,5.7,5.3,9.7c-2.1-2.6-5.4-4.2-9-4.2   c-0.4,0-0.9,0-1.3,0.1c-0.4,1-0.6,2.1-0.6,3.3c0,5,3.7,9.1,8.4,9.7c0.5,0.1,0.9,0.1,1.4,0.1c1.3,0,2.6-0.3,3.7-0.7   c1.7-0.7,3.2-1.9,4.3-3.4c1.2-1.6,1.9-3.6,1.9-5.8C2030.3,273.5,2025.9,269.1,2020.5,269.1z"></path><path class="st1" d="M1977.5,255c2.1,0,4,0.4,5.8,1.2c0.2,0.1,0.5,0.2,0.7,0.3c-4.5,3.5-7.6,8.8-8.1,14.8c3.3-3.9,8.2-6.4,13.7-6.4   c0.7,0,1.3,0,2,0.1c0.6,1.6,0.9,3.3,0.9,5c0,7.6-5.6,13.8-12.9,14.9c-0.7,0.1-1.4,0.2-2.2,0.2c-2,0-3.9-0.4-5.6-1.1   c-2.6-1.1-4.9-2.9-6.6-5.1c-1.8-2.5-2.9-5.5-2.9-8.8C1962.4,261.8,1969.2,255,1977.5,255z"></path><g><path class="st1" d="M1968.9,321c-3,2.5-5.6,5.4-7.8,8.6"></path><path class="st1" d="M2032.3,329.6c-2.5-3.6-5.5-6.8-8.9-9.5"></path></g><path class="st1" d="M1972.9,327.2c-3,2.5-5.6,5.4-7.8,8.6"></path><path class="st1" d="M2028.3,335.9c-2.5-3.6-5.5-6.8-8.9-9.5"></path><path class="st1" d="M1979.9,331.4c-3,2.5-5.6,5.4-7.8,8.6"></path><path class="st1" d="M2021.3,340c-2.5-3.6-5.5-6.8-8.9-9.5"></path><line class="st1" x1="1987.5" y1="302.6" x2="1987.5" y2="293.5"></line><line class="st1" x1="2004.1" y1="302.6" x2="2004.1" y2="293.5"></line><circle class="st1" cx="1987.5" cy="290" r="2"></circle><circle class="st1" cx="2004.1" cy="290" r="2"></circle></g><path d="M82,38.7c0-1.1-0.9-2-2-2c-4.7,0-7-1.4-9.5-2.9c0.4-2.5,1.2-4.2,2.2-5.9c2.2,0.9,4.5,1.3,7.3,1.3c1.1,0,2-0.9,2-2  s-0.9-2-2-2c-2,0-3.7-0.2-5.3-0.8c1-2,2-4.7,2-8.9c0-1.1-0.9-2-2-2s-2,0.9-2,2c0,3.4-0.7,5.5-1.6,7.2c-0.2-0.1-0.4-0.3-0.6-0.4  c-1.7-1-3.4-2-5.7-2.7c0.2-1.3,0.3-2.6,0.3-4.1c0-1.1-0.9-2-2-2s-2,0.9-2,2c0,1.2-0.1,2.4-0.3,3.4c-0.6,0-1.3-0.1-1.9-0.1  c-2.1,0-4,0.2-5.7,0.7c0.2-1.3,0.3-2.6,0.3-4.1c0-1.1-0.9-2-2-2c-1.1,0-2,0.9-2,2c0,2.4-0.3,4.3-1.1,6.1c-0.4,0.2-0.8,0.5-1.1,0.7  c-2.1,1.3-4.2,2.5-7.7,2.8c1.2-2.2,2.3-5,2.3-9.6c0-1.1-0.9-2-2-2s-2,0.9-2,2c0,4.7-1.4,7.1-2.9,9.5l0,0c-2.5-0.4-4.2-1.2-5.9-2.2  c0.9-2.2,1.3-4.5,1.3-7.3c0-1.1-0.9-2-2-2s-2,0.9-2,2c0,2-0.2,3.7-0.8,5.3c-2-1-4.7-2-8.9-2c-1.1,0-2,0.9-2,2s0.9,2,2,2  c3.4,0,5.5,0.7,7.2,1.6c-0.1,0.2-0.3,0.4-0.4,0.6c-1,1.7-2,3.4-2.7,5.7c-1.3-0.2-2.6-0.3-4.1-0.3c-1.1,0-2,0.9-2,2s0.9,2,2,2  c1.2,0,2.4,0.1,3.4,0.3c0,0.6-0.1,1.3-0.1,1.9c0,2.1,0.2,4,0.7,5.7c-1.3-0.2-2.6-0.3-4.1-0.3c-1.1,0-2,0.9-2,2s0.9,2,2,2  c2.4,0,4.3,0.3,6.1,1.1c0.2,0.4,0.5,0.8,0.7,1.1c1.3,2.1,2.5,4.2,2.8,7.7c-2.2-1.2-5-2.3-9.6-2.3c-1.1,0-2,0.9-2,2s0.9,2,2,2  c4.7,0,7.1,1.4,9.5,2.9l0,0c-0.4,2.5-1.2,4.2-2.2,5.9c-2.2-0.9-4.5-1.3-7.3-1.3c-1.1,0-2,0.9-2,2s0.9,2,2,2c2,0,3.7,0.2,5.3,0.8  c-1,2-2,4.7-2,8.9c0,1.1,0.9,2,2,2s2-0.9,2-2c0-3.4,0.7-5.5,1.6-7.2c0.2,0.1,0.4,0.3,0.6,0.4c1.7,1,3.4,2,5.7,2.7  c-0.2,1.3-0.3,2.6-0.3,4.1c0,1.1,0.9,2,2,2s2-0.9,2-2c0-1.2,0.1-2.4,0.3-3.4c0.6,0,1.3,0.1,1.9,0.1c2.1,0,4-0.2,5.7-0.7  c-0.2,1.3-0.3,2.6-0.3,4c0,1.1,0.9,2,2,2s2-0.9,2-2c0-2.4,0.3-4.3,1.1-6.1c0.4-0.2,0.8-0.5,1.1-0.7c2.1-1.3,4.2-2.5,7.7-2.8  c-1.2,2.2-2.3,5-2.3,9.6c0,1.1,0.9,2,2,2s2-0.9,2-2c0-4.7,1.4-7.1,2.9-9.5l0,0c2.5,0.4,4.2,1.2,5.9,2.2c-0.9,2.2-1.3,4.5-1.3,7.3  c0,1.1,0.9,2,2,2s2-0.9,2-2c0-2,0.2-3.7,0.8-5.3c2,1,4.7,2,8.9,2c1.1,0,2-0.9,2-2s-0.9-2-2-2c-3.4,0-5.5-0.7-7.2-1.6  c0.1-0.2,0.3-0.4,0.4-0.6c1-1.7,2-3.4,2.7-5.7c1.3,0.2,2.6,0.3,4.1,0.3c1.1,0,2-0.9,2-2s-0.9-2-2-2c-1.2,0-2.4-0.1-3.4-0.3  c0-0.6,0.1-1.3,0.1-1.9c0-2.1-0.2-4-0.7-5.7c1.3,0.2,2.6,0.3,4,0.3c1.1,0,2-0.9,2-2c0-1.1-0.9-2-2-2c-2.4,0-4.3-0.3-6.1-1.1  c-0.2-0.4-0.5-0.8-0.7-1.1c-1.3-2.1-2.5-4.2-2.8-7.7c2.2,1.2,5,2.3,9.6,2.3C81.1,40.7,82,39.8,82,38.7z M26.8,26.9  c0.1-0.2,0.2-0.4,0.4-0.6c1.6,0.9,3.3,1.8,5.8,2.3c-0.9,2.1-1.4,4.4-1.5,7c-1.2-0.5-2.3-1.1-3.3-1.8c-1.1-0.7-2.3-1.4-3.7-2  C25,29.9,25.8,28.4,26.8,26.9z M47.4,32.6c0.5-2.3,1.5-3.9,2.5-5.6c0.5-0.8,1-1.7,1.5-2.6c1.6-0.8,3.8-1.7,7.4-1.7  c0.2,0,0.4,0,0.6,0c-0.4,0.8-0.8,1.5-1.3,2.2c-1,1.6-2,3.3-2.7,5.6c-3.7,0.5-6,1.9-8.2,3.2C47.3,33.3,47.3,32.9,47.4,32.6z   M59.8,30.3c0.5-1.2,1.1-2.3,1.8-3.3c0.7-1.1,1.4-2.3,2-3.7c1.9,0.5,3.3,1.4,4.8,2.3c0.2,0.1,0.5,0.3,0.7,0.4  c-0.9,1.6-1.8,3.3-2.3,5.8C64.6,30.9,62.4,30.4,59.8,30.3z M37,52.3c0.6,1.6,0.8,3.3,0.8,5.4c0,0.8,0,1.5-0.1,2.2l-0.1,0  c-3.6,0-5.7-0.8-7.4-1.7c0-0.2,0-0.3,0-0.5c0-2.8-0.4-5-1.2-7.2C30.9,51.4,33.4,52.2,37,52.3z M43.3,40c0.4,2.8,1.3,4.7,2.2,6.4  c-1.7,0.9-3.4,1.6-5.9,1.8c-0.4-0.7-0.8-1.4-1.2-2.1c-1-1.6-1.9-3.2-2.5-5.4c0.6,0,1.2,0.1,1.8,0.1C39.7,40.7,41.6,40.4,43.3,40z   M56.9,46c0.4,0.8,0.9,1.5,1.2,2.1c1,1.6,1.9,3.2,2.5,5.4c-0.6,0-1.2-0.1-1.8-0.1c-2.1,0-3.9,0.2-5.6,0.7c-0.4-2.8-1.3-4.7-2.2-6.4  C52.7,46.9,54.4,46.2,56.9,46z M54.7,34.7c0,0.6-0.1,1.2-0.1,1.8c0,2.1,0.2,3.9,0.7,5.6c-2.8,0.4-4.7,1.3-6.4,2.2  c-0.9-1.7-1.6-3.4-1.8-5.9c0.7-0.4,1.4-0.8,2.1-1.2C50.9,36.2,52.5,35.2,54.7,34.7z M41.8,59.4c0-0.6,0.1-1.2,0.1-1.8  c0-2.1-0.2-3.9-0.7-5.6c2.8-0.4,4.7-1.3,6.4-2.2c0.9,1.7,1.6,3.4,1.8,5.9c-0.8,0.4-1.5,0.9-2.1,1.2C45.6,58,44,58.9,41.8,59.4z   M59.4,41.9c-0.6-1.6-0.8-3.3-0.8-5.4c0-0.8,0-1.5,0.1-2.2l0.1,0c3.6,0,5.7,0.8,7.4,1.7c0,0.2,0,0.3,0,0.5c0,2.8,0.4,5,1.2,7.2  C65.5,42.8,63.1,42,59.4,41.9z M43,35.9c-1.6,0.6-3.3,0.8-5.4,0.8c-0.8,0-1.5,0-2.2-0.1l0-0.1c0-3.6,0.8-5.7,1.7-7.4  c0.2,0,0.3,0,0.5,0c2.8,0,5-0.4,7.2-1.2C43.9,29.8,43.1,32.3,43,35.9z M23.8,35.9c0.8,0.4,1.5,0.8,2.2,1.3c1.6,1,3.3,2,5.6,2.7  c0.5,3.7,1.9,6,3.2,8.2c-3-0.4-4.8-1.5-6.8-2.7c-0.8-0.5-1.7-1-2.6-1.5c-0.8-1.6-1.7-3.8-1.7-7.4C23.8,36.3,23.8,36.1,23.8,35.9z   M36.7,63.9c-0.5,1.2-1.1,2.3-1.8,3.3c-0.7,1.1-1.4,2.3-2,3.7c-1.9-0.5-3.3-1.4-4.8-2.3l-0.2-0.1c-0.2-0.1-0.4-0.2-0.5-0.3  c0.9-1.6,1.8-3.3,2.3-5.8C31.9,63.3,34.1,63.8,36.7,63.9z M38.3,69.3c1-1.6,2-3.3,2.7-5.6c3.7-0.5,6-1.9,8.2-3.2  c-0.4,3-1.5,4.8-2.7,6.8c-0.5,0.8-1,1.7-1.5,2.6c-1.6,0.8-3.8,1.7-7.4,1.7c-0.2,0-0.4,0-0.6,0C37.5,70.7,37.9,70,38.3,69.3z   M53.4,58.3c1.6-0.6,3.3-0.8,5.4-0.8c0.8,0,1.5,0,2.2,0.1l0,0.1c0,3.6-0.8,5.7-1.7,7.4c-0.2,0-0.3,0-0.5,0c-2.8,0-5,0.4-7.2,1.2  C52.5,64.4,53.3,61.9,53.4,58.3z M65,58.6c1.2,0.5,2.3,1.1,3.3,1.8c1.1,0.7,2.3,1.4,3.7,2c-0.5,1.9-1.4,3.3-2.3,4.8  c-0.1,0.2-0.3,0.5-0.4,0.7c-1.6-0.9-3.3-1.8-5.8-2.3C64.4,63.4,64.9,61.2,65,58.6z M72.6,58.2c-0.8-0.4-1.5-0.8-2.2-1.3  c-1.6-1-3.3-2-5.6-2.7c-0.5-3.7-1.9-6-3.2-8.2c3,0.4,4.8,1.5,6.8,2.7c0.8,0.5,1.7,1,2.6,1.5c0.8,1.6,1.7,3.8,1.7,7.4  C72.6,57.9,72.6,58,72.6,58.2z"></path></g>
</svg>
</g><g opacity="1" transform="rotate(0 696.0449 369.434)">
<svg width="280.9551" height="15.0296" x="696.0449" y="369.434" version="1.1" preserveAspectRatio="none" viewBox="1.84 -30.64 773.92 41.400000000000006">
  <g transform="matrix(1 0 0 1 0 0)" class="text"><path id="id-6izo4zJp30" fill="black" d="M11.92-22.24Q15.12-22.24 17.34-20.64Q19.56-19.04 20.44-16.36L20.44-16.36L20.44-29.60L24.08-29.60L24.08 0L20.44 0L20.44-5.60Q19.56-2.92 17.34-1.32Q15.12 0.28 11.92 0.28L11.92 0.28Q9 0.28 6.72-1.08Q4.44-2.44 3.14-4.98Q1.84-7.52 1.84-10.96L1.84-10.96Q1.84-14.40 3.14-16.96Q4.44-19.52 6.72-20.88Q9-22.24 11.92-22.24L11.92-22.24ZM12.96-19Q9.60-19 7.58-16.86Q5.56-14.72 5.56-10.96L5.56-10.96Q5.56-7.20 7.58-5.06Q9.60-2.92 12.96-2.92L12.96-2.92Q15.12-2.92 16.82-3.92Q18.52-4.92 19.48-6.74Q20.44-8.56 20.44-10.96L20.44-10.96Q20.44-13.36 19.48-15.20Q18.52-17.04 16.82-18.02Q15.12-19 12.96-19L12.96-19Z M54.08-12.20Q54.08-11.04 53.92-10.20L53.92-10.20L36.36-10.20Q36.48-6.44 38.50-4.56Q40.52-2.68 43.44-2.68L43.44-2.68Q46.08-2.68 47.86-4.02Q49.64-5.36 50.04-7.60L50.04-7.60L53.92-7.60Q53.52-5.32 52.14-3.52Q50.76-1.72 48.56-0.72Q46.36 0.28 43.60 0.28L43.60 0.28Q40.44 0.28 38-1.08Q35.56-2.44 34.18-4.98Q32.80-7.52 32.80-10.96L32.80-10.96Q32.80-14.40 34.18-16.96Q35.56-19.52 38-20.88Q40.44-22.24 43.60-22.24L43.60-22.24Q46.80-22.24 49.18-20.88Q51.56-19.52 52.82-17.24Q54.08-14.96 54.08-12.20L54.08-12.20ZM50.40-11.96Q50.52-14.40 49.60-16.04Q48.68-17.68 47.08-18.48Q45.48-19.28 43.60-19.28L43.60-19.28Q40.60-19.28 38.56-17.42Q36.52-15.56 36.36-11.96L36.36-11.96L50.40-11.96Z M89.84-22.32Q93.68-22.32 96.02-19.86Q98.36-17.40 98.36-12.76L98.36-12.76L98.36 0L94.72 0L94.72-12.44Q94.72-15.68 93.14-17.40Q91.56-19.12 88.80-19.12L88.80-19.12Q85.92-19.12 84.18-17.22Q82.44-15.32 82.44-11.64L82.44-11.64L82.44 0L78.80 0L78.80-12.44Q78.80-15.68 77.20-17.40Q75.60-19.12 72.88-19.12L72.88-19.12Q69.96-19.12 68.22-17.22Q66.48-15.32 66.48-11.64L66.48-11.64L66.48 0L62.84 0L62.84-21.96L66.48-21.96L66.48-16.96Q67.28-19.56 69.34-20.94Q71.40-22.32 74.08-22.32L74.08-22.32Q76.88-22.32 78.94-20.90Q81-19.48 81.88-16.72L81.88-16.72Q82.80-19.40 84.96-20.86Q87.12-22.32 89.84-22.32L89.84-22.32Z M117.96-22.24Q121.12-22.24 123.62-20.88Q126.12-19.52 127.54-16.96Q128.96-14.40 128.96-10.96L128.96-10.96Q128.96-7.52 127.54-4.98Q126.12-2.44 123.62-1.08Q121.12 0.28 117.96 0.28L117.96 0.28Q114.80 0.28 112.30-1.08Q109.80-2.44 108.36-4.98Q106.92-7.52 106.92-10.96L106.92-10.96Q106.92-14.40 108.36-16.96Q109.80-19.52 112.30-20.88Q114.80-22.24 117.96-22.24L117.96-22.24ZM117.96-19.04Q116.00-19.04 114.34-18.16Q112.68-17.28 111.66-15.46Q110.64-13.64 110.64-10.96L110.64-10.96Q110.64-8.32 111.66-6.50Q112.68-4.68 114.34-3.80Q116.00-2.92 117.96-2.92L117.96-2.92Q119.92-2.92 121.58-3.80Q123.24-4.68 124.26-6.50Q125.28-8.32 125.28-10.96L125.28-10.96Q125.28-13.64 124.26-15.46Q123.24-17.28 121.58-18.16Q119.92-19.04 117.96-19.04L117.96-19.04Z M147.44-22.24Q151.64-22.24 154.40-20Q157.16-17.76 157.80-14L157.80-14L153.96-14Q153.56-16.36 151.78-17.70Q150-19.04 147.36-19.04L147.36-19.04Q145.44-19.04 143.86-18.16Q142.28-17.28 141.32-15.46Q140.36-13.64 140.36-10.96L140.36-10.96Q140.36-8.28 141.32-6.46Q142.28-4.64 143.86-3.76Q145.44-2.88 147.36-2.88L147.36-2.88Q150-2.88 151.78-4.24Q153.56-5.60 153.96-7.96L153.96-7.96L157.80-7.96Q157.16-4.16 154.40-1.94Q151.64 0.28 147.44 0.28L147.44 0.28Q144.28 0.28 141.84-1.08Q139.40-2.44 138.02-4.98Q136.64-7.52 136.64-10.96L136.64-10.96Q136.64-14.40 138.02-16.96Q139.40-19.52 141.84-20.88Q144.28-22.24 147.44-22.24L147.44-22.24Z M170.20-17.52Q171.28-19.80 173.36-21.06Q175.44-22.32 178.32-22.32L178.32-22.32L178.32-18.36L177.20-18.36Q174.12-18.36 172.16-16.78Q170.20-15.20 170.20-11.56L170.20-11.56L170.20 0L166.56 0L166.56-21.96L170.20-21.96L170.20-17.52Z M194.92-22.24Q198.12-22.24 200.34-20.64Q202.56-19.04 203.44-16.36L203.44-16.36L203.44-21.96L207.08-21.96L207.08 0L203.44 0L203.44-5.60Q202.56-2.92 200.34-1.32Q198.12 0.28 194.92 0.28L194.92 0.28Q192 0.28 189.72-1.08Q187.44-2.44 186.14-4.98Q184.84-7.52 184.84-10.96L184.84-10.96Q184.84-14.40 186.14-16.96Q187.44-19.52 189.72-20.88Q192-22.24 194.92-22.24L194.92-22.24ZM195.96-19Q192.60-19 190.58-16.86Q188.56-14.72 188.56-10.96L188.56-10.96Q188.56-7.20 190.58-5.06Q192.60-2.92 195.96-2.92L195.96-2.92Q198.12-2.92 199.82-3.92Q201.52-4.92 202.48-6.74Q203.44-8.56 203.44-10.96L203.44-10.96Q203.44-13.36 202.48-15.20Q201.52-17.04 199.82-18.02Q198.12-19 195.96-19L195.96-19Z M225.12-3.20L227.36-3.20L227.36 0L224.64 0Q221.28 0 219.62-1.60Q217.96-3.20 217.96-6.96L217.96-6.96L217.96-18.80L214.68-18.80L214.68-21.96L217.96-21.96L217.96-27.44L221.64-27.44L221.64-21.96L227.32-21.96L227.32-18.80L221.64-18.80L221.64-6.88Q221.64-4.76 222.42-3.98Q223.20-3.20 225.12-3.20L225.12-3.20Z M235.16-28.40Q235.16-29.40 235.84-30.02Q236.52-30.64 237.64-30.64L237.64-30.64Q238.76-30.64 239.44-30.02Q240.12-29.40 240.12-28.40L240.12-28.40Q240.12-27.40 239.44-26.78Q238.76-26.16 237.64-26.16L237.64-26.16Q236.52-26.16 235.84-26.78Q235.16-27.40 235.16-28.40L235.16-28.40ZM235.80-21.96L239.44-21.96L239.44 0L235.80 0L235.80-21.96Z M262.76-19L251.40-3.08L263.16-3.08L263.16 0L247.40 0L247.40-2.92L258.60-18.88L247.72-18.88L247.72-21.96L262.76-21.96L262.76-19Z M270.48-28.40Q270.48-29.40 271.16-30.02Q271.84-30.64 272.96-30.64L272.96-30.64Q274.08-30.64 274.76-30.02Q275.44-29.40 275.44-28.40L275.44-28.40Q275.44-27.40 274.76-26.78Q274.08-26.16 272.96-26.16L272.96-26.16Q271.84-26.16 271.16-26.78Q270.48-27.40 270.48-28.40L270.48-28.40ZM271.12-21.96L274.76-21.96L274.76 0L271.12 0L271.12-21.96Z M296.16-22.32Q300-22.32 302.36-19.86Q304.72-17.40 304.72-12.76L304.72-12.76L304.72 0L301.08 0L301.08-12.44Q301.08-15.72 299.40-17.48Q297.72-19.24 294.84-19.24L294.84-19.24Q291.84-19.24 290.04-17.30Q288.24-15.36 288.24-11.64L288.24-11.64L288.24 0L284.60 0L284.60-21.96L288.24-21.96L288.24-16.76Q289.08-19.44 291.22-20.88Q293.36-22.32 296.16-22.32L296.16-22.32Z M323.32-22.24Q326.52-22.24 328.74-20.64Q330.96-19.04 331.84-16.36L331.84-16.36L331.84-21.96L335.48-21.96L335.48 0.36Q335.48 3.40 334.20 5.76Q332.92 8.12 330.60 9.44Q328.28 10.76 325.20 10.76L325.20 10.76Q320.76 10.76 317.96 8.62Q315.16 6.48 314.40 2.84L314.40 2.84L318 2.84Q318.64 5.04 320.42 6.30Q322.20 7.56 325 7.56L325 7.56Q327.96 7.56 329.90 5.66Q331.84 3.76 331.84 0.36L331.84 0.36L331.84-5.60Q330.96-2.92 328.74-1.32Q326.52 0.28 323.32 0.28L323.32 0.28Q320.40 0.28 318.12-1.08Q315.84-2.44 314.54-4.98Q313.24-7.52 313.24-10.96L313.24-10.96Q313.24-14.40 314.54-16.96Q315.84-19.52 318.12-20.88Q320.40-22.24 323.32-22.24L323.32-22.24ZM324.36-19Q321-19 318.98-16.86Q316.96-14.72 316.96-10.96L316.96-10.96Q316.96-7.20 318.98-5.06Q321-2.92 324.36-2.92L324.36-2.92Q326.52-2.92 328.22-3.92Q329.92-4.92 330.88-6.74Q331.84-8.56 331.84-10.96L331.84-10.96Q331.84-13.36 330.88-15.20Q329.92-17.04 328.22-18.02Q326.52-19 324.36-19L324.36-19Z M368.16-22.24Q371.36-22.24 373.58-20.64Q375.80-19.04 376.68-16.36L376.68-16.36L376.68-21.96L380.32-21.96L380.32 0L376.68 0L376.68-5.60Q375.80-2.92 373.58-1.32Q371.36 0.28 368.16 0.28L368.16 0.28Q365.24 0.28 362.96-1.08Q360.68-2.44 359.38-4.98Q358.08-7.52 358.08-10.96L358.08-10.96Q358.08-14.40 359.38-16.96Q360.68-19.52 362.96-20.88Q365.24-22.24 368.16-22.24L368.16-22.24ZM369.20-19Q365.84-19 363.82-16.86Q361.80-14.72 361.80-10.96L361.80-10.96Q361.80-7.20 363.82-5.06Q365.84-2.92 369.20-2.92L369.20-2.92Q371.36-2.92 373.06-3.92Q374.76-4.92 375.72-6.74Q376.68-8.56 376.68-10.96L376.68-10.96Q376.68-13.36 375.72-15.20Q374.76-17.04 373.06-18.02Q371.36-19 369.20-19L369.20-19Z M399.12-22.24Q402.32-22.24 404.54-20.64Q406.76-19.04 407.64-16.36L407.64-16.36L407.64-29.60L411.28-29.60L411.28 0L407.64 0L407.64-5.60Q406.76-2.92 404.54-1.32Q402.32 0.28 399.12 0.28L399.12 0.28Q396.20 0.28 393.92-1.08Q391.64-2.44 390.34-4.98Q389.04-7.52 389.04-10.96L389.04-10.96Q389.04-14.40 390.34-16.96Q391.64-19.52 393.92-20.88Q396.20-22.24 399.12-22.24L399.12-22.24ZM400.16-19Q396.80-19 394.78-16.86Q392.76-14.72 392.76-10.96L392.76-10.96Q392.76-7.20 394.78-5.06Q396.80-2.92 400.16-2.92L400.16-2.92Q402.32-2.92 404.02-3.92Q405.72-4.92 406.68-6.74Q407.64-8.56 407.64-10.96L407.64-10.96Q407.64-13.36 406.68-15.20Q405.72-17.04 404.02-18.02Q402.32-19 400.16-19L400.16-19Z M422.72-21.96L429.60-3.88L436.40-21.96L440.32-21.96L431.72 0L427.40 0L418.80-21.96L422.72-21.96Z M456.88-22.24Q460.08-22.24 462.30-20.64Q464.52-19.04 465.40-16.36L465.40-16.36L465.40-21.96L469.04-21.96L469.04 0L465.40 0L465.40-5.60Q464.52-2.92 462.30-1.32Q460.08 0.28 456.88 0.28L456.88 0.28Q453.96 0.28 451.68-1.08Q449.40-2.44 448.10-4.98Q446.80-7.52 446.80-10.96L446.80-10.96Q446.80-14.40 448.10-16.96Q449.40-19.52 451.68-20.88Q453.96-22.24 456.88-22.24L456.88-22.24ZM457.92-19Q454.56-19 452.54-16.86Q450.52-14.72 450.52-10.96L450.52-10.96Q450.52-7.20 452.54-5.06Q454.56-2.92 457.92-2.92L457.92-2.92Q460.08-2.92 461.78-3.92Q463.48-4.92 464.44-6.74Q465.40-8.56 465.40-10.96L465.40-10.96Q465.40-13.36 464.44-15.20Q463.48-17.04 461.78-18.02Q460.08-19 457.92-19L457.92-19Z M490.40-22.32Q494.24-22.32 496.60-19.86Q498.96-17.40 498.96-12.76L498.96-12.76L498.96 0L495.32 0L495.32-12.44Q495.32-15.72 493.64-17.48Q491.96-19.24 489.08-19.24L489.08-19.24Q486.08-19.24 484.28-17.30Q482.48-15.36 482.48-11.64L482.48-11.64L482.48 0L478.84 0L478.84-21.96L482.48-21.96L482.48-16.76Q483.32-19.44 485.46-20.88Q487.60-22.32 490.40-22.32L490.40-22.32Z M518.28-22.24Q522.48-22.24 525.24-20Q528.00-17.76 528.64-14L528.64-14L524.80-14Q524.40-16.36 522.62-17.70Q520.84-19.04 518.20-19.04L518.20-19.04Q516.28-19.04 514.70-18.16Q513.12-17.28 512.16-15.46Q511.20-13.64 511.20-10.96L511.20-10.96Q511.20-8.28 512.16-6.46Q513.12-4.64 514.70-3.76Q516.28-2.88 518.20-2.88L518.20-2.88Q520.84-2.88 522.62-4.24Q524.40-5.60 524.80-7.96L524.80-7.96L528.64-7.96Q528.00-4.16 525.24-1.94Q522.48 0.28 518.28 0.28L518.28 0.28Q515.12 0.28 512.68-1.08Q510.24-2.44 508.86-4.98Q507.48-7.52 507.48-10.96L507.48-10.96Q507.48-14.40 508.86-16.96Q510.24-19.52 512.68-20.88Q515.12-22.24 518.28-22.24L518.28-22.24Z M557.60-12.20Q557.60-11.04 557.44-10.20L557.44-10.20L539.88-10.20Q540.00-6.44 542.02-4.56Q544.04-2.68 546.96-2.68L546.96-2.68Q549.60-2.68 551.38-4.02Q553.16-5.36 553.56-7.60L553.56-7.60L557.44-7.60Q557.04-5.32 555.66-3.52Q554.28-1.72 552.08-0.72Q549.88 0.28 547.12 0.28L547.12 0.28Q543.96 0.28 541.52-1.08Q539.08-2.44 537.70-4.98Q536.32-7.52 536.32-10.96L536.32-10.96Q536.32-14.40 537.70-16.96Q539.08-19.52 541.52-20.88Q543.96-22.24 547.12-22.24L547.12-22.24Q550.32-22.24 552.70-20.88Q555.08-19.52 556.34-17.24Q557.60-14.96 557.60-12.20L557.60-12.20ZM553.92-11.96Q554.04-14.40 553.12-16.04Q552.20-17.68 550.60-18.48Q549.00-19.28 547.12-19.28L547.12-19.28Q544.12-19.28 542.08-17.42Q540.04-15.56 539.88-11.96L539.88-11.96L553.92-11.96Z M575.36-22.24Q578.56-22.24 580.78-20.64Q583.00-19.04 583.88-16.36L583.88-16.36L583.88-29.60L587.52-29.60L587.52 0L583.88 0L583.88-5.60Q583.00-2.92 580.78-1.32Q578.56 0.28 575.36 0.28L575.36 0.28Q572.44 0.28 570.16-1.08Q567.88-2.44 566.58-4.98Q565.28-7.52 565.28-10.96L565.28-10.96Q565.28-14.40 566.58-16.96Q567.88-19.52 570.16-20.88Q572.44-22.24 575.36-22.24L575.36-22.24ZM576.40-19Q573.04-19 571.02-16.86Q569.00-14.72 569.00-10.96L569.00-10.96Q569.00-7.20 571.02-5.06Q573.04-2.92 576.40-2.92L576.40-2.92Q578.56-2.92 580.26-3.92Q581.96-4.92 582.92-6.74Q583.88-8.56 583.88-10.96L583.88-10.96Q583.88-13.36 582.92-15.20Q581.96-17.04 580.26-18.02Q578.56-19 576.40-19L576.40-19Z M619.44-3.20L621.68-3.20L621.68 0L618.96 0Q615.60 0 613.94-1.60Q612.28-3.20 612.28-6.96L612.28-6.96L612.28-18.80L609-18.80L609-21.96L612.28-21.96L612.28-27.44L615.96-27.44L615.96-21.96L621.64-21.96L621.64-18.80L615.96-18.80L615.96-6.88Q615.96-4.76 616.74-3.98Q617.52-3.20 619.44-3.20L619.44-3.20Z M633.76-17.52Q634.84-19.80 636.92-21.06Q639.00-22.32 641.88-22.32L641.88-22.32L641.88-18.36L640.76-18.36Q637.68-18.36 635.72-16.78Q633.76-15.20 633.76-11.56L633.76-11.56L633.76 0L630.12 0L630.12-21.96L633.76-21.96L633.76-17.52Z M658.48-22.24Q661.68-22.24 663.90-20.64Q666.12-19.04 667-16.36L667-16.36L667-21.96L670.64-21.96L670.64 0L667 0L667-5.60Q666.12-2.92 663.90-1.32Q661.68 0.28 658.48 0.28L658.48 0.28Q655.56 0.28 653.28-1.08Q651-2.44 649.70-4.98Q648.40-7.52 648.40-10.96L648.40-10.96Q648.40-14.40 649.70-16.96Q651-19.52 653.28-20.88Q655.56-22.24 658.48-22.24L658.48-22.24ZM659.52-19Q656.16-19 654.14-16.86Q652.12-14.72 652.12-10.96L652.12-10.96Q652.12-7.20 654.14-5.06Q656.16-2.92 659.52-2.92L659.52-2.92Q661.68-2.92 663.38-3.92Q665.08-4.92 666.04-6.74Q667-8.56 667-10.96L667-10.96Q667-13.36 666.04-15.20Q665.08-17.04 663.38-18.02Q661.68-19 659.52-19L659.52-19Z M689.44-22.24Q692.64-22.24 694.86-20.64Q697.08-19.04 697.96-16.36L697.96-16.36L697.96-29.60L701.60-29.60L701.60 0L697.96 0L697.96-5.60Q697.08-2.92 694.86-1.32Q692.64 0.28 689.44 0.28L689.44 0.28Q686.52 0.28 684.24-1.08Q681.96-2.44 680.66-4.98Q679.36-7.52 679.36-10.96L679.36-10.96Q679.36-14.40 680.66-16.96Q681.96-19.52 684.24-20.88Q686.52-22.24 689.44-22.24L689.44-22.24ZM690.48-19Q687.12-19 685.10-16.86Q683.08-14.72 683.08-10.96L683.08-10.96Q683.08-7.20 685.10-5.06Q687.12-2.92 690.48-2.92L690.48-2.92Q692.64-2.92 694.34-3.92Q696.04-4.92 697-6.74Q697.96-8.56 697.96-10.96L697.96-10.96Q697.96-13.36 697-15.20Q696.04-17.04 694.34-18.02Q692.64-19 690.48-19L690.48-19Z M710.76-28.40Q710.76-29.40 711.44-30.02Q712.12-30.64 713.24-30.64L713.24-30.64Q714.36-30.64 715.04-30.02Q715.72-29.40 715.72-28.40L715.72-28.40Q715.72-27.40 715.04-26.78Q714.36-26.16 713.24-26.16L713.24-26.16Q712.12-26.16 711.44-26.78Q710.76-27.40 710.76-28.40L710.76-28.40ZM711.40-21.96L715.04-21.96L715.04 0L711.40 0L711.40-21.96Z M736.44-22.32Q740.28-22.32 742.64-19.86Q745-17.40 745-12.76L745-12.76L745 0L741.36 0L741.36-12.44Q741.36-15.72 739.68-17.48Q738-19.24 735.12-19.24L735.12-19.24Q732.12-19.24 730.32-17.30Q728.52-15.36 728.52-11.64L728.52-11.64L728.52 0L724.88 0L724.88-21.96L728.52-21.96L728.52-16.76Q729.36-19.44 731.50-20.88Q733.64-22.32 736.44-22.32L736.44-22.32Z M763.60-22.24Q766.80-22.24 769.02-20.64Q771.24-19.04 772.12-16.36L772.12-16.36L772.12-21.96L775.76-21.96L775.76 0.36Q775.76 3.40 774.48 5.76Q773.20 8.12 770.88 9.44Q768.56 10.76 765.48 10.76L765.48 10.76Q761.04 10.76 758.24 8.62Q755.44 6.48 754.68 2.84L754.68 2.84L758.28 2.84Q758.92 5.04 760.70 6.30Q762.48 7.56 765.28 7.56L765.28 7.56Q768.24 7.56 770.18 5.66Q772.12 3.76 772.12 0.36L772.12 0.36L772.12-5.60Q771.24-2.92 769.02-1.32Q766.80 0.28 763.60 0.28L763.60 0.28Q760.68 0.28 758.40-1.08Q756.12-2.44 754.82-4.98Q753.52-7.52 753.52-10.96L753.52-10.96Q753.52-14.40 754.82-16.96Q756.12-19.52 758.40-20.88Q760.68-22.24 763.60-22.24L763.60-22.24ZM764.64-19Q761.28-19 759.26-16.86Q757.24-14.72 757.24-10.96L757.24-10.96Q757.24-7.20 759.26-5.06Q761.28-2.92 764.64-2.92L764.64-2.92Q766.80-2.92 768.50-3.92Q770.20-4.92 771.16-6.74Q772.12-8.56 772.12-10.96L772.12-10.96Q772.12-13.36 771.16-15.20Q770.20-17.04 768.50-18.02Q766.80-19 764.64-19L764.64-19Z"/></g>
</svg>
</g><g opacity="1" transform="rotate(0 696.0449 319.8364)">
<svg width="256.1763" height="37.5739" x="696.0449" y="319.8364" version="1.1" preserveAspectRatio="none" viewBox="0.64 -29.6 203.72000000000003 29.88">
  <g transform="matrix(1 0 0 1 0 0)" class="companyName"><path fill="black" id="id-D6z1nYkh9" d="M12.84-5.88L15-5.88L15 0L11.92 0Q8 0 5.82-1.94Q3.64-3.88 3.64-8.36L3.64-8.36L3.64-16.56L0.64-16.56L0.64-22.32L3.64-22.32L3.64-27.80L10.48-27.80L10.48-22.32L14.96-22.32L14.96-16.56L10.48-16.56L10.48-8.24Q10.48-6.92 11.02-6.40Q11.56-5.88 12.84-5.88L12.84-5.88Z M26.48-18.12Q27.76-20.16 29.78-21.36Q31.80-22.56 34.16-22.56L34.16-22.56L34.16-15.24L32.20-15.24Q29.48-15.24 27.98-14.08Q26.48-12.92 26.48-10.16L26.48-10.16L26.48 0L19.64 0L19.64-22.32L26.48-22.32L26.48-18.12Z M46.32-22.60Q48.88-22.60 50.72-21.44Q52.56-20.28 53.44-18.28L53.44-18.28L53.44-22.32L60.24-22.32L60.24 0L53.44 0L53.44-4.04Q52.56-2.04 50.72-0.88Q48.88 0.28 46.32 0.28L46.32 0.28Q43.56 0.28 41.38-1.10Q39.20-2.48 37.94-5.08Q36.68-7.68 36.68-11.16L36.68-11.16Q36.68-14.68 37.94-17.26Q39.20-19.84 41.38-21.22Q43.56-22.60 46.32-22.60L46.32-22.60ZM48.52-16.60Q46.32-16.60 44.98-15.16Q43.64-13.72 43.64-11.16L43.64-11.16Q43.64-8.60 44.98-7.16Q46.32-5.72 48.52-5.72L48.52-5.72Q50.68-5.72 52.06-7.20Q53.44-8.68 53.44-11.16L53.44-11.16Q53.44-13.68 52.06-15.14Q50.68-16.60 48.52-16.60L48.52-16.60Z M74.24-22.60Q76.80-22.60 78.64-21.44Q80.48-20.28 81.32-18.28L81.32-18.28L81.32-29.60L88.16-29.60L88.16 0L81.32 0L81.32-4.04Q80.48-2.04 78.64-0.88Q76.80 0.28 74.24 0.28L74.24 0.28Q71.48 0.28 69.30-1.10Q67.12-2.48 65.86-5.08Q64.60-7.68 64.60-11.16L64.60-11.16Q64.60-14.68 65.86-17.26Q67.12-19.84 69.30-21.22Q71.48-22.60 74.24-22.60L74.24-22.60ZM76.44-16.60Q74.24-16.60 72.90-15.16Q71.56-13.72 71.56-11.16L71.56-11.16Q71.56-8.60 72.90-7.16Q74.24-5.72 76.44-5.72L76.44-5.72Q78.60-5.72 79.98-7.20Q81.36-8.68 81.36-11.16L81.36-11.16Q81.36-13.68 79.98-15.14Q78.60-16.60 76.44-16.60L76.44-16.60Z M114.88-11.76Q114.88-10.92 114.68-9.92L114.68-9.92L99.20-9.92Q99.32-7.40 100.48-6.30Q101.64-5.20 103.44-5.20L103.44-5.20Q104.96-5.20 105.96-5.96Q106.96-6.72 107.28-7.92L107.28-7.92L114.52-7.92Q114.08-5.56 112.60-3.70Q111.12-1.84 108.84-0.78Q106.56 0.28 103.76 0.28L103.76 0.28Q100.48 0.28 97.94-1.10Q95.40-2.48 93.96-5.08Q92.52-7.68 92.52-11.16L92.52-11.16Q92.52-14.68 93.94-17.26Q95.36-19.84 97.92-21.22Q100.48-22.60 103.76-22.60L103.76-22.60Q107.08-22.60 109.60-21.24Q112.12-19.88 113.50-17.42Q114.88-14.96 114.88-11.76L114.88-11.76ZM107.96-12.80Q108-15 106.78-16.10Q105.56-17.20 103.76-17.20L103.76-17.20Q101.88-17.20 100.64-16.08Q99.40-14.96 99.24-12.80L99.24-12.80L107.96-12.80Z M126.08-18.12Q127.36-20.16 129.38-21.36Q131.40-22.56 133.76-22.56L133.76-22.56L133.76-15.24L131.80-15.24Q129.08-15.24 127.58-14.08Q126.08-12.92 126.08-10.16L126.08-10.16L126.08 0L119.24 0L119.24-22.32L126.08-22.32L126.08-18.12Z M151.36-22.60Q154.12-22.60 156.30-21.22Q158.48-19.84 159.74-17.26Q161-14.68 161-11.16L161-11.16Q161-7.68 159.74-5.08Q158.48-2.48 156.30-1.10Q154.12 0.28 151.36 0.28L151.36 0.28Q148.80 0.28 146.96-0.88Q145.12-2.04 144.28-4.04L144.28-4.04L144.28 0L137.44 0L137.44-29.60L144.28-29.60L144.28-18.28Q145.12-20.28 146.96-21.44Q148.80-22.60 151.36-22.60L151.36-22.60ZM149.16-16.60Q147-16.60 145.62-15.14Q144.24-13.68 144.24-11.16L144.24-11.16Q144.24-8.68 145.62-7.20Q147-5.72 149.16-5.72L149.16-5.72Q151.36-5.72 152.70-7.16Q154.04-8.60 154.04-11.16L154.04-11.16Q154.04-13.72 152.70-15.16Q151.36-16.60 149.16-16.60L149.16-16.60Z M175.80-22.60Q179.12-22.60 181.74-21.22Q184.36-19.84 185.86-17.24Q187.36-14.64 187.36-11.16L187.36-11.16Q187.36-7.68 185.86-5.08Q184.36-2.48 181.74-1.10Q179.12 0.28 175.80 0.28L175.80 0.28Q172.48 0.28 169.84-1.10Q167.20-2.48 165.70-5.08Q164.20-7.68 164.20-11.16L164.20-11.16Q164.20-14.64 165.70-17.24Q167.20-19.84 169.84-21.22Q172.48-22.60 175.80-22.60L175.80-22.60ZM175.80-16.68Q173.84-16.68 172.50-15.26Q171.16-13.84 171.16-11.16L171.16-11.16Q171.16-8.48 172.50-7.08Q173.84-5.68 175.80-5.68L175.80-5.68Q177.76-5.68 179.08-7.08Q180.40-8.48 180.40-11.16L180.40-11.16Q180.40-13.84 179.08-15.26Q177.76-16.68 175.80-16.68L175.80-16.68Z M202.20-5.88L204.36-5.88L204.36 0L201.28 0Q197.36 0 195.18-1.94Q193.00-3.88 193.00-8.36L193.00-8.36L193.00-16.56L190.00-16.56L190.00-22.32L193.00-22.32L193.00-27.80L199.84-27.80L199.84-22.32L204.32-22.32L204.32-16.56L199.84-16.56L199.84-8.24Q199.84-6.92 200.38-6.40Q200.92-5.88 202.20-5.88L202.20-5.88Z"/></g>
</svg>
</g></svg>